<svg xmlns="http://www.w3.org/2000/svg" viewBox="0 0 100 100" width="100%" height="100%">
  <!-- Spider-Man Mask Outline & Fill -->
  <path d="M 50,4 C 22,4 6,28 6,58 C 6,78 30,94 50,98 C 70,94 94,78 94,58 C 94,28 78,4 50,4 Z" fill="#ff1e2d" stroke="#120708" stroke-width="3" />
  
  <!-- Web Radial Mesh Lines -->
  <path d="M 50,4 L 50,98 M 6,58 L 94,58 M 18,22 L 82,74 M 82,22 L 18,74 M 50,28 C 32,45 32,55 50,72 C 68,55 68,45 50,28 Z M 50,16 C 18,45 18,65 50,84 C 82,65 82,45 50,16 Z" fill="none" stroke="rgba(0,0,0,0.45)" stroke-width="1.8" />
  
  <!-- Spidey Left Eye (Thick Black Border + Crisp White Center) -->
  <path d="M 18,42 Q 35,40 44,56 Q 32,64 18,42 Z" fill="#ffffff" stroke="#000000" stroke-width="4" stroke-linejoin="round" />
  
  <!-- Spidey Right Eye (Thick Black Border + Crisp White Center) -->
  <path d="M 82,42 Q 65,40 56,56 Q 68,64 82,42 Z" fill="#ffffff" stroke="#000000" stroke-width="4" stroke-linejoin="round" />
</svg>